<svg version="1.1" xmlns="http://www.w3.org/2000/svg" viewBox="0 0 1407 86" width="1407" height="86">
  <!-- svg-source:excalidraw -->
  
  <defs>
    <style class="style-fonts">
      @font-face {
        font-family: "Virgil";
        src: url("https://excalidraw.com/Virgil.woff2");
      }
      @font-face {
        font-family: "Cascadia";
        src: url("https://excalidraw.com/Cascadia.woff2");
      }
      @font-face {
        font-family: "Assistant";
        src: url("https://excalidraw.com/Assistant-Regular.woff2");
      }
    </style>
    
  </defs>
  <rect x="0" y="0" width="1407" height="86" fill="#f0f0f0"></rect><g transform="translate(10 61) rotate(0 693.5 -18)" stroke="none"><path fill="#846358" d="M 0,-2.49 Q 0,-2.49 1.65,-2.45 3.30,-2.41 4.83,-2.40 6.37,-2.39 7.84,-2.39 9.32,-2.39 10.73,-2.39 12.14,-2.38 13.75,-2.88 15.36,-3.38 16.68,-3.43 18.00,-3.48 19.44,-4.93 20.88,-6.38 22.05,-7.20 23.23,-8.02 24.57,-8.50 25.91,-8.99 27.52,-9.22 29.12,-9.46 30.73,-10.49 32.35,-11.52 33.76,-13.07 35.18,-14.61 36.28,-15.82 37.37,-17.03 38.77,-19.01 40.17,-20.99 41.93,-21.88 43.70,-22.76 45.16,-24.27 46.63,-25.79 47.70,-27.44 48.77,-29.10 50.55,-30.46 52.34,-31.83 53.80,-32.86 55.27,-33.89 56.71,-34.89 58.15,-35.90 59.59,-36.90 61.02,-37.91 62.08,-39.53 63.13,-41.15 63.28,-42.41 63.42,-43.68 64.70,-44.90 65.98,-46.12 67.88,-47.06 69.77,-48.00 71.27,-48.07 72.76,-48.15 74.51,-47.82 76.26,-47.49 77.55,-47.33 78.84,-47.17 80.02,-46.69 81.19,-46.20 83.06,-45.05 84.94,-43.90 86.50,-42.81 88.06,-41.72 89.31,-40.86 90.55,-39.99 92.09,-39.41 93.63,-38.84 95.18,-37.80 96.73,-36.77 98.07,-35.40 99.41,-34.02 100.89,-33.45 102.37,-32.87 103.94,-31.36 105.51,-29.84 106.89,-28.88 108.26,-27.91 109.89,-27.28 111.52,-26.64 112.82,-26.10 114.13,-25.56 115.50,-25.01 116.87,-24.46 118.30,-23.90 119.73,-23.34 120.74,-22.65 121.76,-21.95 123.45,-20.85 125.13,-19.75 126.50,-18.81 127.87,-17.87 129.40,-17.29 130.93,-16.71 132.42,-15.77 133.91,-14.83 135.27,-13.91 136.62,-12.98 138.36,-12.71 140.10,-12.43 141.14,-11.74 142.17,-11.04 143.81,-10.63 145.46,-10.21 146.56,-9.64 147.67,-9.06 149.69,-8.24 151.72,-7.42 152.62,-6.74 153.51,-6.05 154.99,-5.51 156.46,-4.98 157.92,-4.49 159.37,-4.00 159.51,-5.80 159.66,-7.60 160.83,-8.23 161.99,-8.85 163.09,-9.17 164.19,-9.48 165.75,-9.63 167.32,-9.79 168.88,-10.28 170.44,-10.77 171.58,-11.94 172.72,-13.11 174.05,-13.60 175.39,-14.09 176.91,-15.56 178.43,-17.02 179.78,-17.53 181.13,-18.05 182.61,-19.01 184.09,-19.97 185.54,-20.96 186.98,-21.96 188.34,-23.36 189.70,-24.76 191.05,-26.14 192.39,-27.53 193.82,-29.00 195.25,-30.46 196.75,-32.01 198.24,-33.55 199.79,-34.71 201.33,-35.87 203.09,-36.74 204.86,-37.60 206.35,-38.65 207.84,-39.69 209.40,-40.30 210.97,-40.91 213.07,-41.05 215.16,-41.19 217.73,-41.45 220.29,-41.70 224.77,-42.05 229.25,-42.39 232.75,-42.77 236.25,-43.15 239.39,-43.57 242.54,-43.98 244.76,-44.14 246.98,-44.30 248.63,-44.70 250.28,-45.09 251.94,-45.32 253.60,-45.56 255.18,-45.68 256.76,-45.80 257.79,-45.55 258.82,-45.31 259.90,-44.98 260.99,-44.66 262.31,-44.22 263.63,-43.78 264.56,-43.15 265.50,-42.51 266.49,-41.81 267.48,-41.12 268.57,-40.62 269.67,-40.12 270.96,-39.59 272.25,-39.07 273.65,-38.55 275.05,-38.02 275.95,-37.38 276.85,-36.75 278.49,-36.19 280.12,-35.64 282.08,-34.91 284.03,-34.19 284.98,-33.49 285.92,-32.79 287.86,-32.02 289.81,-31.26 290.80,-30.50 291.79,-29.74 293.42,-28.66 295.06,-27.59 296.44,-26.23 297.82,-24.87 299.32,-24.31 300.81,-23.75 302.43,-22.22 304.06,-20.69 305.92,-19.21 307.79,-17.73 308.91,-17.14 310.03,-16.54 311.52,-15.55 313.01,-14.55 313.89,-13.71 314.77,-12.86 316.35,-11.78 317.93,-10.69 319.29,-9.76 320.64,-8.83 322.11,-8.32 323.59,-7.82 325.44,-7.10 327.29,-6.39 328.17,-5.70 329.05,-5.01 330.93,-4.66 332.82,-4.30 333.76,-3.66 334.71,-3.03 336.21,-2.50 337.72,-1.97 339.27,-1.44 340.83,-0.91 342.29,0.05 343.75,1.03 345.51,1.31 347.27,1.60 348.22,2.25 349.17,2.90 350.18,1.40 351.19,-0.08 352.84,-0.41 354.49,-0.75 356.96,-1.78 359.43,-2.81 360.90,-3.31 362.38,-3.81 363.82,-4.28 365.26,-4.74 367.08,-5.54 368.91,-6.35 368.51,-7.35 368.11,-8.35 368.46,-9.45 368.80,-10.54 369.98,-11.70 371.17,-12.85 372.59,-14.40 374.01,-15.95 375.44,-17.47 376.87,-18.99 377.73,-17.75 378.59,-16.52 377.00,-17.25 375.41,-17.99 373.92,-18.54 372.42,-19.10 371.83,-20.11 371.23,-21.12 371.53,-22.99 371.83,-24.86 372.89,-25.95 373.95,-27.04 375.73,-28.43 377.51,-29.82 379.11,-30.44 380.72,-31.06 381.79,-31.32 382.87,-31.59 384.49,-31.74 386.12,-31.89 387.63,-31.91 389.13,-31.93 390.66,-31.90 392.19,-31.86 393.36,-31.50 394.52,-31.13 396.36,-30.54 398.20,-29.95 400.11,-29.20 402.02,-28.46 403.35,-27.93 404.68,-27.41 406.10,-26.86 407.51,-26.31 408.56,-25.58 409.60,-24.84 410.22,-23.93 410.83,-23.03 411.19,-21.52 411.54,-20.01 411.62,-18.90 411.70,-17.79 411.37,-16.10 411.05,-14.42 409.86,-13.26 408.68,-12.09 408.88,-10.88 409.07,-9.66 409.97,-8.14 410.88,-6.62 412.19,-5.24 413.50,-3.86 414.85,-2.90 416.20,-1.94 417.62,-0.94 419.03,0.05 420.52,1.12 422.00,2.20 423.21,3.06 424.42,3.91 425.65,3.83 426.89,3.74 427.87,3.21 428.85,2.67 429.97,1.67 431.08,0.66 432.71,-0.60 434.34,-1.87 435.61,-3.06 436.88,-4.25 438.42,-4.99 439.96,-5.74 441.45,-6.30 442.94,-6.85 444.60,-7.12 446.27,-7.39 447.63,-8.16 448.99,-8.92 450.28,-11.20 451.57,-13.48 452.85,-14.79 454.14,-16.09 455.53,-17.51 456.93,-18.93 458.51,-20.67 460.09,-22.40 460.09,-23.87 460.09,-25.34 460.05,-26.80 460.01,-28.26 459.97,-29.76 459.94,-31.26 460.31,-33.46 460.67,-35.66 461.81,-36.77 462.96,-37.88 464.67,-39.21 466.38,-40.55 468.00,-41.22 469.63,-41.88 471.22,-42.45 472.81,-43.02 474.22,-43.06 475.64,-43.10 476.74,-43.33 477.84,-43.55 480.17,-43.77 482.50,-43.99 484.05,-44.55 485.61,-45.12 487.25,-45.71 488.88,-46.29 490.40,-46.83 491.93,-47.37 493.38,-47.88 494.84,-48.39 496.72,-49.26 498.60,-50.14 500.04,-50.27 501.48,-50.39 502.66,-50.68 503.84,-50.98 505.37,-51.13 506.90,-51.27 508.80,-52.32 510.69,-53.37 511.95,-52.94 513.20,-52.52 514.91,-51.55 516.63,-50.58 517.16,-49.63 517.69,-48.68 518.71,-48.15 519.73,-47.62 520.23,-46.65 520.73,-45.68 520.94,-44.29 521.15,-42.90 521.20,-41.83 521.25,-40.76 521.29,-39.25 521.33,-37.74 521.36,-36.24 521.38,-34.73 522.42,-33.51 523.45,-32.28 524.67,-31.50 525.89,-30.73 527.25,-29.30 528.61,-27.88 530.42,-26.85 532.23,-25.81 533.11,-24.90 533.98,-23.99 535.80,-22.78 537.61,-21.58 538.54,-20.75 539.48,-19.93 540.36,-19.22 541.25,-18.52 541.96,-17.64 542.66,-16.76 543.93,-15.84 545.20,-14.92 546.65,-14.40 548.11,-13.88 549.90,-13.19 551.70,-12.49 553.05,-11.95 554.40,-11.41 555.44,-10.65 556.49,-9.89 557.10,-8.96 557.70,-8.03 558.97,-6.75 560.24,-5.46 561.39,-4.20 562.55,-2.94 563.89,-2.50 565.22,-2.05 566.73,-2.10 568.23,-2.14 569.35,-1.67 570.47,-1.20 572.12,-1.17 573.77,-1.13 575.09,-1.07 576.42,-1.01 577.75,-0.94 579.08,-0.88 580.56,-1.28 582.03,-1.68 581.48,-2.99 580.93,-4.30 580.89,-5.78 580.85,-7.26 580.81,-8.76 580.78,-10.26 580.00,-11.24 579.21,-12.22 578.72,-13.24 578.22,-14.26 578.03,-15.67 577.84,-17.08 577.81,-18.15 577.78,-19.22 578.77,-21.02 579.76,-22.82 580.77,-23.36 581.79,-23.90 581.19,-25.09 580.60,-26.29 581.01,-28.01 581.42,-29.73 582.74,-31.01 584.07,-32.29 585.81,-32.67 587.56,-33.04 589.16,-33.08 590.77,-33.12 592.00,-32.76 593.23,-32.41 595.34,-31.98 597.44,-31.56 598.87,-31.05 600.30,-30.54 601.71,-30.01 603.12,-29.48 604.33,-29.28 605.54,-29.08 606.62,-28.57 607.70,-28.06 609.49,-27.40 611.28,-26.74 612.92,-25.70 614.55,-24.66 616.16,-23.13 617.76,-21.60 618.33,-19.89 618.89,-18.17 620.22,-17.85 621.56,-17.54 622.44,-16.72 623.32,-15.91 624.75,-14.91 626.18,-13.91 627.67,-12.84 629.16,-11.77 630.63,-10.29 632.09,-8.81 633.46,-7.85 634.83,-6.89 636.11,-5.97 637.39,-5.05 638.90,-4.45 640.41,-3.85 642.07,-2.26 643.73,-0.67 644.30,1.06 644.88,2.80 645.76,4.00 646.65,5.20 648.04,6.20 649.42,7.20 649.88,8.18 650.34,9.16 650.56,10.60 650.78,12.04 649.88,11.44 648.97,10.84 650.43,11.37 651.89,11.90 650.80,12.00 649.72,12.10 650.64,10.69 651.57,9.29 652.67,8.70 653.77,8.12 654.91,6.91 656.04,5.69 657.43,5.18 658.82,4.66 661.29,4.31 663.76,3.96 665.45,3.60 667.14,3.23 668.87,2.24 670.60,1.25 672.18,0.97 673.76,0.69 675.11,-0.10 676.45,-0.90 677.79,-1.38 679.13,-1.86 680.53,-2.33 681.92,-2.80 683.16,-3.45 684.40,-4.10 685.80,-4.93 687.20,-5.76 689.80,-6.42 692.41,-7.09 694.19,-7.61 695.97,-8.12 697.55,-8.65 699.12,-9.18 700.61,-9.71 702.10,-10.23 703.56,-10.76 705.02,-11.28 706.46,-11.79 707.90,-12.31 709.34,-12.83 710.78,-13.34 712.13,-13.79 713.49,-14.25 714.97,-15.64 716.45,-17.04 717.90,-18.61 719.35,-20.17 720.90,-21.92 722.45,-23.66 723.58,-24.36 724.72,-25.07 726.36,-26.34 727.99,-27.60 729.46,-28.68 730.92,-29.75 731.94,-31.18 732.95,-32.61 734.71,-34.47 736.48,-36.33 738.29,-37.35 740.09,-38.37 741.71,-39.02 743.32,-39.67 744.42,-39.97 745.51,-40.27 746.84,-40.66 748.16,-41.04 749.57,-41.48 750.97,-41.91 752.64,-42.14 754.32,-42.37 755.61,-42.69 756.90,-43.00 758.53,-43.18 760.17,-43.35 761.97,-43.10 763.78,-42.84 764.86,-42.33 765.94,-41.82 768.07,-41.02 770.20,-40.21 771.31,-40.06 772.42,-39.92 774.01,-39.48 775.59,-39.04 776.57,-38.45 777.54,-37.87 779.32,-37.83 781.10,-37.79 782.20,-37.34 783.31,-36.89 785.12,-35.80 786.93,-34.72 788.50,-33.66 790.06,-32.60 791.64,-31.07 793.21,-29.54 794.62,-28.10 796.03,-26.65 796.94,-25.57 797.86,-24.49 798.53,-23.56 799.21,-22.62 800.82,-21.60 802.42,-20.59 803.37,-19.73 804.31,-18.86 805.12,-18.12 805.93,-17.38 806.95,-16.82 807.97,-16.26 809.01,-15.59 810.04,-14.93 811.45,-13.97 812.85,-13.01 814.38,-12.41 815.90,-11.82 817.25,-10.93 818.60,-10.04 820.14,-9.45 821.68,-8.86 822.29,-7.86 822.89,-6.86 823.14,-5.40 823.39,-3.94 823.43,-2.85 823.48,-1.77 825.24,-2.04 826.99,-2.30 828.32,-2.22 829.65,-2.13 831.04,-2.06 832.43,-2.00 833.79,-1.93 835.15,-1.87 836.63,-2.73 838.10,-3.60 839.16,-5.26 840.22,-6.93 842.83,-7.98 845.45,-9.03 847.02,-9.44 848.59,-9.85 850.09,-10.30 851.59,-10.74 853.03,-11.20 854.48,-11.65 856.30,-12.45 858.13,-13.25 857.75,-14.70 857.38,-16.15 857.46,-17.21 857.55,-18.28 858.68,-19.94 859.82,-21.61 861.21,-22.69 862.60,-23.78 864.18,-24.60 865.77,-25.41 867.27,-26.00 868.76,-26.59 870.61,-27.45 872.47,-28.32 873.65,-30.06 874.83,-31.80 874.66,-33.33 874.49,-34.86 875.78,-37.38 877.06,-39.90 877.29,-40.79 877.52,-41.69 877.75,-42.00 877.97,-42.31 878.26,-42.56 878.55,-42.81 878.89,-42.98 879.24,-43.15 879.61,-43.24 879.98,-43.33 880.37,-43.32 880.75,-43.31 881.12,-43.22 881.49,-43.12 881.83,-42.93 882.17,-42.75 882.45,-42.49 882.73,-42.23 882.94,-41.91 883.16,-41.59 883.29,-41.23 883.42,-40.87 883.46,-40.49 883.50,-40.11 883.44,-39.73 883.39,-39.35 883.25,-38.99 883.11,-38.64 882.71,-40.62 882.31,-42.61 883.83,-41.62 885.34,-40.63 886.84,-39.13 888.33,-37.64 888.59,-36.37 888.84,-35.10 890.08,-34.36 891.32,-33.62 892.66,-32.22 894.01,-30.83 895.57,-30.24 897.13,-29.66 898.43,-29.12 899.72,-28.58 901.09,-28.03 902.45,-27.48 903.60,-27.30 904.75,-27.11 906.32,-26.67 907.90,-26.22 909.13,-26.07 910.37,-25.92 911.97,-25.50 913.58,-25.09 914.84,-24.95 916.10,-24.81 917.70,-24.41 919.31,-24.01 920.57,-23.88 921.84,-23.75 923.44,-23.36 925.05,-22.96 926.32,-22.84 927.59,-22.71 929.19,-22.32 930.79,-21.93 932.84,-21.66 934.89,-21.39 936.81,-20.99 938.72,-20.58 940.24,-20.45 941.75,-20.32 942.80,-19.93 943.85,-19.54 946.11,-19.17 948.38,-18.81 949.35,-18.22 950.33,-17.63 952.02,-16.60 953.71,-15.56 955.28,-14.53 956.84,-13.50 958.32,-12.52 959.80,-11.55 961.39,-10.04 962.99,-8.54 964.40,-7.10 965.81,-5.66 966.31,-4.67 966.81,-3.68 966.96,-2.54 967.12,-1.40 967.17,0.27 967.23,1.95 967.24,2.52 967.26,3.09 967.22,3.48 967.18,3.88 967.05,4.25 966.91,4.62 966.69,4.95 966.48,5.28 966.18,5.55 965.89,5.82 965.55,6.01 965.20,6.20 964.82,6.30 964.43,6.40 964.04,6.41 963.64,6.41 963.26,6.33 962.87,6.24 962.52,6.06 962.17,5.88 961.86,5.63 961.56,5.37 961.33,5.05 961.10,4.73 960.96,4.36 960.81,3.99 960.75,3.60 960.70,3.21 961.12,1.67 961.53,0.14 962.73,-0.97 963.93,-2.09 965.67,-2.95 967.41,-3.80 968.56,-4.52 969.71,-5.25 971.02,-6.09 972.33,-6.93 973.56,-8.46 974.79,-9.98 976.19,-10.96 977.59,-11.93 978.93,-13.01 980.27,-14.09 981.82,-15.21 983.36,-16.33 984.79,-17.52 986.22,-18.72 988.80,-19.93 991.38,-21.13 994.11,-22.14 996.84,-23.14 998.81,-23.83 1000.79,-24.52 1002.44,-25.15 1004.08,-25.77 1005.76,-26.94 1007.44,-28.11 1008.87,-29.73 1010.31,-31.36 1010.93,-33.28 1011.54,-35.20 1012.59,-35.76 1013.63,-36.32 1014.82,-37.15 1016.00,-37.99 1017.30,-38.46 1018.61,-38.93 1021.05,-40.07 1023.50,-41.21 1025.68,-42.21 1027.86,-43.22 1029.38,-43.35 1030.89,-43.49 1032.65,-43.20 1034.41,-42.92 1035.53,-42.33 1036.65,-41.74 1037.33,-40.86 1038.01,-39.99 1039.26,-38.79 1040.51,-37.58 1042.19,-36.98 1043.86,-36.38 1044.81,-35.64 1045.76,-34.90 1047.40,-33.78 1049.04,-32.66 1049.43,-31.34 1049.81,-30.02 1051.07,-29.28 1052.32,-28.53 1052.63,-26.88 1052.94,-25.22 1054.15,-24.35 1055.36,-23.48 1055.73,-22.13 1056.11,-20.79 1057.06,-20.24 1058.01,-19.68 1058.48,-18.70 1058.96,-17.71 1059.92,-17.23 1060.87,-16.75 1062.40,-15.23 1063.94,-13.70 1065.26,-12.76 1066.58,-11.82 1067.12,-10.81 1067.65,-9.79 1068.60,-9.30 1069.55,-8.80 1070.07,-7.78 1070.59,-6.76 1070.79,-5.34 1070.99,-3.92 1072.70,-3.65 1074.40,-3.38 1075.80,-3.74 1077.20,-4.10 1078.24,-4.34 1079.28,-4.58 1080.56,-4.91 1081.84,-5.25 1082.95,-6.83 1084.07,-8.41 1085.48,-9.50 1086.89,-10.60 1088.45,-12.57 1090.01,-14.54 1091.58,-15.43 1093.14,-16.32 1094.47,-17.11 1095.80,-17.90 1097.38,-18.62 1098.96,-19.33 1100.64,-19.68 1102.32,-20.03 1104.03,-21.17 1105.73,-22.31 1106.85,-23.56 1107.97,-24.80 1109.12,-26.92 1110.28,-29.04 1110.33,-30.23 1110.39,-31.42 1110.36,-32.84 1110.33,-34.27 1110.30,-35.76 1110.26,-37.26 1110.26,-38.67 1110.25,-40.08 1110.25,-41.56 1110.25,-43.04 1110.25,-44.54 1110.25,-46.04 1110.23,-47.13 1110.21,-48.22 1110.26,-48.62 1110.31,-49.03 1110.46,-49.42 1110.60,-49.80 1110.84,-50.14 1111.07,-50.48 1111.38,-50.75 1111.69,-51.02 1112.05,-51.21 1112.41,-51.41 1112.81,-51.50 1113.21,-51.60 1113.62,-51.60 1114.03,-51.60 1114.43,-51.50 1114.83,-51.41 1115.20,-51.21 1115.56,-51.02 1115.87,-50.75 1116.18,-50.48 1116.41,-50.14 1116.64,-49.80 1116.79,-49.42 1116.94,-49.03 1116.99,-48.62 1117.03,-48.22 1116.29,-49.84 1115.55,-51.46 1117.03,-51.05 1118.50,-50.64 1120.14,-49.73 1121.77,-48.81 1123.03,-48.20 1124.29,-47.59 1125.30,-46.81 1126.30,-46.04 1127.26,-45.28 1128.21,-44.53 1128.94,-43.66 1129.67,-42.78 1131.08,-41.77 1132.50,-40.77 1133.94,-39.78 1135.38,-38.79 1137.10,-38.12 1138.83,-37.45 1139.70,-36.75 1140.57,-36.04 1142.12,-35.48 1143.68,-34.91 1145.27,-33.86 1146.85,-32.82 1148.56,-32.16 1150.27,-31.50 1151.58,-30.97 1152.89,-30.44 1154.47,-29.50 1156.05,-28.56 1157.34,-27.96 1158.63,-27.35 1160.17,-26.39 1161.71,-25.44 1163.01,-24.83 1164.32,-24.22 1165.69,-23.66 1167.06,-23.11 1168.49,-22.57 1169.93,-22.03 1170.90,-21.37 1171.88,-20.70 1173.62,-19.60 1175.37,-18.49 1176.04,-16.84 1176.71,-15.20 1176.84,-14.01 1176.97,-12.82 1177.05,-11.28 1177.14,-9.74 1177.16,-9.24 1177.18,-8.74 1177.13,-8.37 1177.09,-7.99 1176.96,-7.64 1176.82,-7.29 1176.61,-6.98 1176.40,-6.67 1176.12,-6.42 1175.83,-6.17 1175.50,-5.99 1175.17,-5.81 1174.80,-5.72 1174.44,-5.63 1174.06,-5.63 1173.68,-5.63 1173.32,-5.72 1172.95,-5.81 1172.62,-5.98 1172.28,-6.16 1172.00,-6.41 1171.72,-6.66 1171.50,-6.97 1171.29,-7.28 1171.15,-7.63 1171.02,-7.98 1170.97,-8.35 1170.93,-8.73 1172.99,-10.27 1175.06,-11.82 1176.09,-12.53 1177.12,-13.24 1178.20,-13.85 1179.29,-14.45 1180.83,-15.10 1182.37,-15.74 1183.86,-16.27 1185.35,-16.80 1186.82,-17.29 1188.28,-17.77 1189.55,-18.43 1190.82,-19.09 1192.38,-19.74 1193.94,-20.39 1195.43,-20.95 1196.93,-21.50 1198.22,-22.20 1199.52,-22.90 1201.07,-23.57 1202.62,-24.24 1204.11,-24.81 1205.61,-25.38 1208.06,-25.82 1210.52,-26.26 1212.27,-26.72 1214.02,-27.18 1215.58,-27.69 1217.14,-28.19 1218.77,-28.46 1220.40,-28.73 1222.07,-29.38 1223.75,-30.02 1225.21,-30.62 1226.67,-31.21 1227.82,-31.98 1228.96,-32.75 1230.09,-34.31 1231.22,-35.87 1232.56,-37.69 1233.89,-39.52 1235.49,-41.38 1237.09,-43.23 1237.81,-44.71 1238.52,-46.18 1239.81,-46.89 1241.10,-47.60 1242.66,-47.70 1244.21,-47.80 1245.40,-47.45 1246.58,-47.10 1248.47,-45.97 1250.36,-44.85 1252.33,-43.75 1254.31,-42.64 1255.48,-42.07 1256.66,-41.49 1258.16,-40.52 1259.66,-39.56 1261.56,-38.88 1263.45,-38.20 1265.24,-37.57 1267.03,-36.93 1268.46,-36.73 1269.88,-36.53 1271.49,-36.13 1273.11,-35.72 1274.62,-35.27 1276.14,-34.81 1277.62,-34.33 1279.09,-33.85 1280.54,-33.36 1282.00,-32.87 1284.12,-32.29 1286.24,-31.70 1288.07,-31.16 1289.91,-30.62 1291.55,-30.12 1293.19,-29.62 1294.19,-29.04 1295.19,-28.47 1297.38,-27.68 1299.57,-26.89 1300.94,-26.41 1302.30,-25.93 1303.71,-25.43 1305.11,-24.94 1306.54,-24.44 1307.96,-23.94 1309.39,-23.44 1310.83,-22.94 1312.26,-22.44 1313.70,-21.94 1315.14,-21.44 1316.57,-20.94 1318.01,-20.44 1319.44,-19.94 1320.68,-19.79 1321.91,-19.64 1323.50,-19.23 1325.09,-18.81 1326.10,-18.24 1327.11,-17.66 1328.77,-16.66 1330.42,-15.66 1331.85,-15.20 1333.28,-14.74 1334.73,-14.28 1336.19,-13.82 1337.57,-14.27 1338.95,-14.72 1340.46,-15.73 1341.96,-16.75 1343.77,-16.49 1345.57,-16.24 1346.72,-15.57 1347.87,-14.90 1349.38,-13.94 1350.88,-12.99 1352.27,-12.53 1353.66,-12.07 1355.09,-12.13 1356.53,-12.19 1358.14,-11.79 1359.76,-11.39 1360.97,-11.25 1362.17,-11.10 1363.52,-11.01 1364.87,-10.92 1366.53,-10.54 1368.20,-10.16 1369.47,-10.03 1370.74,-9.89 1372.36,-9.49 1373.98,-9.08 1375.48,-8.60 1376.99,-8.12 1378.45,-7.62 1379.91,-7.12 1381.35,-6.61 1382.79,-6.10 1384.23,-5.88 1385.67,-5.67 1385.94,-5.54 1386.21,-5.41 1386.45,-5.21 1386.68,-5.02 1386.86,-4.78 1387.04,-4.54 1387.15,-4.26 1387.27,-3.98 1387.32,-3.69 1387.36,-3.39 1387.34,-3.09 1387.31,-2.79 1387.22,-2.51 1387.12,-2.22 1386.96,-1.97 1386.79,-1.71 1386.58,-1.51 1386.36,-1.30 1386.10,-1.15 1385.84,-1.00 1385.55,-0.92 1385.26,-0.83 1384.96,-0.82 1384.65,-0.81 1384.36,-0.88 1384.07,-0.94 1381.61,-0.61 1379.16,-0.28 1378.73,-0.35 1378.29,-0.41 1377.90,-0.61 1377.51,-0.82 1377.20,-1.13 1376.89,-1.45 1376.70,-1.85 1376.51,-2.24 1376.46,-2.68 1376.41,-3.12 1376.50,-3.55 1376.59,-3.98 1376.81,-4.36 1377.03,-4.74 1377.36,-5.03 1377.69,-5.32 1378.10,-5.49 1378.51,-5.66 1378.95,-5.69 1379.39,-5.72 1379.81,-5.60 1380.24,-5.49 1380.61,-5.25 1380.97,-5.01 1381.25,-4.66 1381.52,-4.31 1381.66,-3.90 1381.81,-3.48 1381.81,-3.04 1381.82,-2.60 1381.68,-2.18 1381.55,-1.76 1381.29,-1.41 1381.03,-1.05 1380.66,-0.80 1380.30,-0.55 1379.88,-0.43 1379.46,-0.30 1379.02,-0.32 1378.58,-0.34 1378.17,-0.50 1377.75,-0.65 1377.41,-0.94 1377.08,-1.22 1376.84,-1.59 1376.61,-1.96 1376.51,-2.39 1376.41,-2.82 1376.45,-3.26 1376.49,-3.70 1376.67,-4.10 1376.85,-4.50 1377.15,-4.83 1377.45,-5.15 1377.84,-5.36 1378.23,-5.57 1378.66,-5.65 1379.09,-5.73 1379.09,-5.73 1379.09,-5.73 1381.31,-5.62 1383.52,-5.51 1384.59,-5.59 1385.67,-5.67 1385.94,-5.54 1386.21,-5.41 1386.45,-5.21 1386.68,-5.02 1386.86,-4.78 1387.04,-4.54 1387.15,-4.26 1387.27,-3.99 1387.32,-3.69 1387.36,-3.39 1387.34,-3.09 1387.31,-2.79 1387.22,-2.51 1387.12,-2.22 1386.96,-1.97 1386.80,-1.71 1386.58,-1.51 1386.36,-1.30 1386.10,-1.15 1385.84,-1.00 1385.55,-0.92 1385.26,-0.83 1384.96,-0.82 1384.66,-0.81 1384.36,-0.87 1384.07,-0.94 1382.63,-1.14 1381.19,-1.34 1379.76,-1.80 1378.32,-2.27 1376.90,-2.71 1375.49,-3.15 1374.11,-3.53 1372.74,-3.92 1371.49,-4.21 1370.23,-4.49 1368.63,-4.62 1367.03,-4.75 1365.83,-4.99 1364.62,-5.24 1363.12,-5.26 1361.62,-5.28 1360.02,-5.41 1358.41,-5.53 1357.30,-5.76 1356.20,-5.99 1354.79,-6.04 1353.39,-6.08 1351.84,-6.65 1350.29,-7.21 1348.83,-7.77 1347.37,-8.33 1345.90,-8.98 1344.43,-9.63 1343.35,-9.95 1342.27,-10.27 1340.50,-9.65 1338.72,-9.02 1337.61,-8.72 1336.49,-8.41 1334.78,-8.98 1333.08,-9.55 1331.60,-10.15 1330.12,-10.75 1328.43,-11.59 1326.75,-12.43 1325.27,-13.36 1323.78,-14.29 1322.50,-14.64 1321.22,-14.98 1319.57,-15.25 1317.92,-15.52 1316.48,-16.03 1315.04,-16.53 1313.60,-17.03 1312.16,-17.52 1310.72,-18.02 1309.29,-18.52 1307.85,-19.02 1306.42,-19.53 1304.98,-20.03 1303.55,-20.53 1302.13,-21.04 1300.71,-21.54 1299.31,-22.06 1297.92,-22.58 1296.57,-23.13 1295.22,-23.67 1293.58,-24.76 1291.93,-25.85 1290.40,-26.34 1288.86,-26.84 1287.12,-27.30 1285.37,-27.75 1282.95,-28.16 1280.54,-28.57 1279.10,-29.06 1277.67,-29.56 1276.24,-30.04 1274.82,-30.52 1273.40,-30.97 1271.99,-31.42 1270.60,-31.79 1269.22,-32.16 1267.47,-32.44 1265.72,-32.72 1263.94,-33.20 1262.16,-33.69 1259.55,-34.30 1256.94,-34.91 1255.63,-35.62 1254.32,-36.33 1252.77,-36.99 1251.22,-37.65 1250.08,-38.30 1248.94,-38.95 1247.55,-39.88 1246.16,-40.81 1245.20,-41.36 1244.25,-41.91 1243.10,-41.19 1241.96,-40.46 1240.58,-39.35 1239.20,-38.24 1237.85,-36.35 1236.50,-34.46 1235.78,-33.13 1235.07,-31.81 1234.06,-30.66 1233.05,-29.50 1231.38,-28.46 1229.71,-27.41 1228.11,-26.93 1226.51,-26.45 1224.81,-25.97 1223.11,-25.49 1222.11,-25.05 1221.11,-24.62 1219.73,-24.47 1218.36,-24.31 1216.74,-23.81 1215.12,-23.30 1213.29,-22.74 1211.46,-22.18 1209.38,-21.57 1207.31,-20.96 1205.92,-20.42 1204.54,-19.88 1203.21,-19.29 1201.89,-18.69 1200.31,-17.77 1198.72,-16.86 1197.34,-16.30 1195.96,-15.75 1194.65,-15.15 1193.34,-14.55 1191.74,-13.61 1190.15,-12.68 1188.77,-12.13 1187.38,-11.58 1186.06,-11.02 1184.75,-10.45 1183.58,-9.88 1182.41,-9.31 1180.45,-8.23 1178.48,-7.16 1177.42,-6.56 1176.35,-5.95 1176.77,-7.35 1177.18,-8.74 1177.13,-8.37 1177.09,-7.99 1176.96,-7.64 1176.82,-7.29 1176.61,-6.98 1176.40,-6.67 1176.12,-6.42 1175.83,-6.17 1175.50,-5.99 1175.17,-5.81 1174.80,-5.72 1174.44,-5.63 1174.06,-5.63 1173.68,-5.63 1173.32,-5.72 1172.95,-5.81 1172.62,-5.98 1172.28,-6.16 1172.00,-6.41 1171.72,-6.66 1171.50,-6.97 1171.29,-7.27 1171.15,-7.63 1171.02,-7.98 1170.97,-8.35 1170.93,-8.73 1170.95,-9.23 1170.97,-9.73 1171.03,-11.19 1171.10,-12.65 1171.20,-14.05 1171.30,-15.45 1169.74,-16.48 1168.17,-17.52 1166.73,-18.03 1165.28,-18.54 1163.78,-19.11 1162.28,-19.68 1160.71,-20.36 1159.14,-21.04 1157.82,-21.76 1156.49,-22.48 1154.93,-23.12 1153.37,-23.76 1152.13,-24.39 1150.90,-25.02 1149.49,-25.49 1148.08,-25.95 1146.70,-26.46 1145.33,-26.97 1143.89,-27.95 1142.46,-28.94 1141.27,-29.69 1140.08,-30.44 1138.29,-31.23 1136.50,-32.02 1135.15,-32.52 1133.80,-33.02 1132.32,-34.06 1130.84,-35.11 1129.37,-36.18 1127.89,-37.24 1126.26,-38.54 1124.62,-39.83 1123.24,-40.99 1121.86,-42.14 1120.34,-42.71 1118.82,-43.27 1116.91,-44.00 1115.01,-44.72 1112.61,-46.47 1110.21,-48.22 1110.26,-48.62 1110.31,-49.03 1110.46,-49.42 1110.60,-49.80 1110.84,-50.14 1111.07,-50.48 1111.38,-50.75 1111.69,-51.02 1112.05,-51.21 1112.41,-51.41 1112.81,-51.50 1113.21,-51.60 1113.62,-51.60 1114.03,-51.60 1114.43,-51.50 1114.83,-51.41 1115.20,-51.21 1115.56,-51.02 1115.87,-50.75 1116.18,-50.48 1116.41,-50.14 1116.64,-49.80 1116.79,-49.42 1116.94,-49.03 1116.99,-48.62 1117.03,-48.22 1117.03,-47.69 1117.02,-47.16 1117.00,-45.95 1116.99,-44.74 1116.99,-43.25 1116.99,-41.75 1116.98,-40.29 1116.98,-38.83 1116.96,-37.04 1116.94,-35.25 1116.88,-33.71 1116.83,-32.17 1116.75,-31.00 1116.66,-29.83 1116.21,-28.19 1115.75,-26.54 1114.61,-25.48 1113.46,-24.42 1113.01,-22.96 1112.55,-21.50 1110.92,-19.99 1109.28,-18.48 1107.47,-17.40 1105.65,-16.31 1104.55,-15.72 1103.44,-15.13 1102.27,-14.91 1101.10,-14.70 1099.86,-14.10 1098.63,-13.49 1097.22,-12.52 1095.81,-11.56 1094.09,-10.35 1092.36,-9.14 1091.53,-7.74 1090.70,-6.34 1088.98,-4.59 1087.27,-2.84 1086.64,-1.91 1086.00,-0.98 1084.91,-0.23 1083.81,0.51 1082.35,1.04 1080.89,1.57 1078.84,1.98 1076.79,2.38 1075.57,2.75 1074.35,3.11 1072.76,3.06 1071.18,3.00 1069.28,2.06 1067.38,1.12 1066.13,-0.09 1064.89,-1.30 1065.08,-2.72 1065.28,-4.15 1063.83,-5.67 1062.38,-7.19 1060.62,-8.52 1058.85,-9.85 1057.76,-11.04 1056.67,-12.23 1055.16,-13.83 1053.64,-15.44 1052.44,-16.19 1051.24,-16.94 1050.63,-18.67 1050.02,-20.41 1048.72,-22.78 1047.42,-25.14 1045.98,-27.14 1044.55,-29.14 1043.07,-30.11 1041.58,-31.09 1040.24,-31.60 1038.90,-32.10 1037.46,-33.19 1036.02,-34.27 1034.74,-35.84 1033.46,-37.41 1032.38,-37.79 1031.30,-38.17 1029.47,-38.05 1027.64,-37.94 1026.59,-37.20 1025.53,-36.47 1024.12,-35.78 1022.70,-35.09 1021.75,-34.37 1020.80,-33.65 1019.62,-33.16 1018.43,-32.68 1016.97,-32.28 1015.50,-31.88 1014.94,-30.30 1014.38,-28.73 1013.59,-27.94 1012.80,-27.15 1011.90,-26.45 1010.99,-25.75 1009.15,-24.69 1007.31,-23.63 1006.33,-23.03 1005.34,-22.44 1003.69,-21.86 1002.03,-21.28 1000.13,-20.50 998.23,-19.71 995.73,-18.59 993.23,-17.48 991.28,-16.40 989.34,-15.32 987.92,-13.84 986.50,-12.37 985.23,-11.25 983.97,-10.14 982.58,-8.68 981.20,-7.22 979.43,-5.73 977.67,-4.24 976.02,-2.64 974.37,-1.04 972.84,-0.00 971.31,1.04 969.29,2.06 967.26,3.09 967.22,3.48 967.18,3.88 967.05,4.25 966.91,4.62 966.69,4.95 966.48,5.28 966.18,5.55 965.89,5.82 965.55,6.01 965.20,6.20 964.82,6.30 964.43,6.40 964.04,6.41 963.64,6.41 963.26,6.33 962.87,6.24 962.52,6.06 962.17,5.88 961.86,5.63 961.56,5.37 961.33,5.05 961.10,4.73 960.96,4.36 960.81,3.99 960.75,3.60 960.70,3.21 960.71,1.99 960.72,0.76 961.23,-0.30 961.73,-1.38 960.56,-2.02 959.38,-2.65 958.84,-3.89 958.29,-5.12 957.16,-6.36 956.04,-7.61 954.32,-8.98 952.60,-10.35 951.20,-11.37 949.79,-12.39 948.39,-13.31 946.98,-14.22 945.87,-14.54 944.76,-14.87 943.00,-15.49 941.24,-16.11 939.58,-16.28 937.92,-16.45 936.26,-16.74 934.59,-17.04 932.11,-17.07 929.63,-17.10 928.35,-17.41 927.07,-17.72 925.46,-17.89 923.86,-18.07 922.58,-18.37 921.31,-18.68 919.70,-18.85 918.09,-19.02 916.82,-19.32 915.55,-19.62 913.93,-19.79 912.31,-19.95 911.04,-20.25 909.77,-20.55 908.13,-20.72 906.50,-20.89 905.20,-21.20 903.91,-21.50 902.21,-21.74 900.52,-21.98 899.07,-22.44 897.63,-22.89 896.21,-23.35 894.79,-23.81 893.39,-24.32 892.00,-24.83 890.52,-25.88 889.04,-26.94 887.61,-28.46 886.17,-29.98 884.76,-31.98 883.35,-33.97 882.13,-35.28 880.91,-36.59 879.75,-37.06 878.58,-37.53 878.05,-39.61 877.52,-41.69 877.75,-42.00 877.97,-42.31 878.26,-42.56 878.55,-42.81 878.89,-42.98 879.24,-43.15 879.61,-43.24 879.98,-43.33 880.37,-43.32 880.75,-43.31 881.12,-43.22 881.49,-43.12 881.83,-42.93 882.17,-42.75 882.45,-42.49 882.73,-42.23 882.94,-41.91 883.16,-41.60 883.29,-41.23 883.42,-40.87 883.46,-40.49 883.50,-40.11 883.44,-39.73 883.39,-39.35 883.25,-39.00 883.11,-38.64 882.95,-38.09 882.78,-37.55 881.77,-36.10 880.75,-34.65 880.60,-32.94 880.44,-31.24 880.03,-29.90 879.61,-28.57 878.40,-27.38 877.18,-26.19 876.60,-25.27 876.03,-24.35 874.37,-23.70 872.71,-23.06 871.82,-22.37 870.94,-21.67 869.65,-21.09 868.36,-20.51 867.29,-19.92 866.22,-19.34 864.72,-18.29 863.23,-17.24 863.25,-15.97 863.28,-14.71 862.99,-12.96 862.70,-11.21 862.12,-10.31 861.54,-9.40 859.83,-8.77 858.12,-8.13 857.17,-7.50 856.22,-6.86 854.73,-6.32 853.24,-5.77 851.73,-5.22 850.21,-4.67 848.59,-4.08 846.97,-3.49 845.88,-3.31 844.78,-3.13 843.84,-2.19 842.91,-1.24 842.36,-0.28 841.81,0.67 839.86,1.79 837.92,2.91 836.64,3.38 835.37,3.85 833.87,3.90 832.37,3.95 830.92,3.98 829.48,4.01 828.02,4.03 826.56,4.04 825.05,3.98 823.54,3.92 821.82,3.54 820.10,3.17 818.80,1.91 817.50,0.66 817.11,-0.51 816.72,-1.69 817.32,-2.92 817.92,-4.15 816.46,-4.70 815.00,-5.26 813.53,-6.28 812.05,-7.31 810.34,-8.09 808.62,-8.87 807.46,-9.62 806.29,-10.36 804.54,-11.24 802.79,-12.12 801.18,-13.71 799.58,-15.30 798.04,-16.07 796.51,-16.84 795.10,-18.30 793.68,-19.76 792.82,-21.07 791.96,-22.39 790.78,-23.03 789.60,-23.66 789.04,-24.92 788.47,-26.17 787.05,-27.67 785.63,-29.17 784.26,-30.12 782.88,-31.07 781.69,-31.75 780.50,-32.44 779.12,-32.51 777.75,-32.58 775.94,-33.32 774.13,-34.06 772.89,-34.37 771.65,-34.68 770.01,-34.93 768.37,-35.19 767.02,-35.68 765.68,-36.17 764.26,-36.98 762.84,-37.80 761.77,-37.98 760.70,-38.17 759.46,-38.02 758.22,-37.88 756.65,-37.45 755.08,-37.02 753.90,-36.85 752.72,-36.68 751.31,-36.16 749.91,-35.65 748.51,-35.16 747.11,-34.66 745.31,-34.39 743.52,-34.12 742.17,-33.65 740.82,-33.19 739.61,-32.25 738.39,-31.32 737.89,-30.33 737.38,-29.35 736.37,-27.85 735.36,-26.35 733.86,-25.33 732.35,-24.31 730.85,-23.28 729.35,-22.25 728.55,-21.41 727.75,-20.58 725.75,-19.08 723.75,-17.58 722.28,-16.50 720.81,-15.43 719.11,-13.88 717.42,-12.34 716.35,-11.30 715.28,-10.26 713.76,-9.72 712.23,-9.17 710.78,-8.68 709.33,-8.19 707.87,-7.70 706.42,-7.22 704.94,-6.73 703.47,-6.24 701.95,-5.74 700.44,-5.24 698.84,-4.70 697.24,-4.17 695.45,-3.54 693.65,-2.91 691.73,-2.23 689.82,-1.55 688.37,-0.56 686.91,0.42 685.33,1.34 683.75,2.25 682.40,2.76 681.05,3.28 679.00,4.06 676.95,4.85 675.88,5.39 674.82,5.93 672.85,6.45 670.87,6.97 669.76,7.60 668.64,8.23 666.83,8.86 665.03,9.49 663.16,10.13 661.29,10.78 659.70,11.79 658.12,12.81 657.08,13.88 656.05,14.96 655.26,15.98 654.48,16.99 653.06,17.50 651.65,18.01 649.83,17.41 648.01,16.81 646.95,16.24 645.89,15.68 645.16,13.40 644.42,11.12 642.98,10.08 641.55,9.03 640.31,7.84 639.08,6.64 638.92,4.86 638.76,3.07 637.62,1.90 636.48,0.72 634.72,-0.10 632.95,-0.94 631.51,-1.93 630.07,-2.93 628.64,-3.95 627.21,-4.98 625.76,-6.45 624.32,-7.92 622.89,-8.91 621.45,-9.89 620.05,-10.83 618.66,-11.78 617.53,-12.54 616.39,-13.29 615.31,-13.88 614.22,-14.47 613.57,-16.24 612.92,-18.02 611.83,-19.21 610.74,-20.41 609.29,-21.41 607.85,-22.42 606.21,-22.96 604.57,-23.50 602.93,-23.70 601.29,-23.90 599.88,-24.31 598.47,-24.71 597.16,-25.06 595.84,-25.41 594.80,-25.66 593.75,-25.90 592.31,-26.25 590.86,-26.61 589.27,-26.41 587.68,-26.22 587.65,-25.15 587.63,-24.08 587.44,-22.66 587.25,-21.24 586.75,-20.20 586.25,-19.17 584.52,-18.43 582.79,-17.70 583.78,-18.49 584.77,-19.29 584.19,-18.06 583.60,-16.83 584.62,-16.29 585.64,-15.75 586.58,-13.00 587.52,-10.26 587.48,-8.75 587.45,-7.25 587.40,-5.74 587.35,-4.22 587.29,-3.13 587.23,-2.05 586.94,-0.58 586.65,0.87 586.01,1.82 585.37,2.77 583.48,3.43 581.59,4.10 580.44,4.47 579.29,4.85 577.80,4.89 576.31,4.93 574.90,4.95 573.49,4.97 572.09,4.93 570.68,4.89 569.13,4.42 567.58,3.95 566.25,3.92 564.91,3.90 563.34,3.31 561.76,2.72 560.16,2.02 558.56,1.32 556.96,-0.41 555.36,-2.16 553.84,-4.10 552.32,-6.04 550.95,-6.47 549.57,-6.91 548.23,-7.39 546.88,-7.87 545.65,-8.66 544.42,-9.45 542.64,-10.35 540.86,-11.25 539.22,-12.57 537.59,-13.88 536.21,-15.10 534.83,-16.32 533.29,-17.06 531.76,-17.81 530.27,-19.16 528.78,-20.51 527.65,-21.14 526.51,-21.77 525.03,-22.82 523.54,-23.87 522.10,-25.36 520.66,-26.86 519.21,-28.38 517.77,-29.90 516.55,-31.11 515.32,-32.31 514.93,-33.52 514.54,-34.73 514.57,-36.23 514.59,-37.73 514.63,-39.21 514.66,-40.70 515.21,-42.06 515.75,-43.42 514.38,-44.94 513.01,-46.47 511.44,-46.90 509.88,-47.34 508.73,-46.82 507.58,-46.31 506.29,-46.18 505.00,-46.05 503.42,-45.69 501.85,-45.33 500.08,-45.31 498.31,-45.30 497.39,-44.68 496.47,-44.07 494.99,-43.54 493.52,-43.00 492.04,-42.45 490.57,-41.90 489.04,-41.27 487.51,-40.64 485.51,-39.70 483.51,-38.75 481.38,-38.13 479.24,-37.51 477.62,-37.10 476.00,-36.69 474.60,-36.75 473.21,-36.81 471.85,-36.33 470.49,-35.86 469.29,-35.37 468.09,-34.88 467.36,-33.07 466.64,-31.26 466.60,-29.75 466.56,-28.25 466.50,-26.71 466.45,-25.16 466.34,-23.97 466.24,-22.77 465.67,-21.08 465.09,-19.39 463.72,-18.29 462.35,-17.19 460.89,-15.27 459.43,-13.35 458.04,-11.90 456.64,-10.45 455.44,-9.63 454.25,-8.80 453.75,-7.07 453.26,-5.33 451.42,-4.17 449.57,-3.00 448.47,-2.46 447.37,-1.91 446.23,-1.70 445.08,-1.50 443.85,-0.95 442.62,-0.40 440.90,0.69 439.18,1.78 437.76,2.80 436.35,3.82 435.64,4.71 434.93,5.60 434.10,6.26 433.26,6.92 431.32,8.10 429.38,9.28 428.16,9.66 426.94,10.04 425.41,10.02 423.89,9.99 422.29,9.37 420.69,8.75 418.90,7.42 417.11,6.10 415.67,5.11 414.22,4.12 412.78,3.13 411.33,2.14 409.89,1.12 408.45,0.10 407.01,-1.42 405.57,-2.94 404.36,-4.14 403.14,-5.33 402.79,-7.57 402.43,-9.81 402.51,-10.98 402.59,-12.14 403.10,-13.84 403.61,-15.53 404.57,-17.07 405.53,-18.61 405.54,-19.88 405.56,-21.14 404.16,-21.58 402.76,-22.02 401.36,-22.47 399.96,-22.92 398.63,-23.39 397.30,-23.85 396.14,-24.56 394.99,-25.28 393.52,-25.66 392.05,-26.05 390.73,-25.96 389.41,-25.87 388.11,-25.76 386.81,-25.66 385.72,-25.50 384.63,-25.35 382.98,-25.11 381.32,-24.87 380.29,-24.14 379.26,-23.42 377.91,-22.57 376.56,-21.73 376.42,-22.81 376.29,-23.90 378.59,-22.95 380.88,-21.99 381.38,-18.67 381.88,-15.35 380.43,-13.86 378.98,-12.38 377.57,-10.93 376.16,-9.49 375.16,-8.27 374.17,-7.05 373.88,-5.62 373.59,-4.18 373.01,-3.26 372.42,-2.34 370.73,-1.70 369.04,-1.05 368.11,-0.39 367.17,0.26 365.74,0.82 364.32,1.37 362.96,1.93 361.59,2.49 360.32,3.07 359.05,3.65 356.32,4.79 353.59,5.93 352.80,6.87 352.01,7.81 350.65,8.24 349.29,8.68 347.34,7.98 345.38,7.29 344.29,7.01 343.21,6.73 341.42,5.91 339.63,5.08 338.51,4.37 337.38,3.66 335.90,3.11 334.41,2.56 332.71,1.87 331.00,1.19 329.89,0.90 328.78,0.60 326.93,-0.20 325.08,-1.02 323.77,-1.48 322.46,-1.94 321.24,-2.74 320.01,-3.53 318.28,-4.40 316.55,-5.26 315.07,-6.34 313.59,-7.42 311.87,-8.70 310.14,-9.98 308.82,-10.71 307.50,-11.44 305.91,-12.19 304.32,-12.94 302.97,-13.83 301.63,-14.72 300.44,-15.86 299.25,-17.00 298.12,-18.19 296.98,-19.39 295.27,-20.24 293.55,-21.10 292.42,-22.33 291.29,-23.57 289.49,-24.89 287.69,-26.21 286.35,-26.71 285.01,-27.21 283.50,-28.21 281.99,-29.22 280.69,-29.69 279.40,-30.17 278.14,-31.00 276.88,-31.84 275.08,-32.68 273.27,-33.52 271.85,-34.03 270.43,-34.54 268.98,-35.12 267.53,-35.70 266.07,-36.44 264.60,-37.18 263.31,-38.37 262.01,-39.56 260.75,-40.03 259.48,-40.51 258.13,-41.25 256.78,-41.99 255.37,-41.97 253.96,-41.96 252.48,-41.87 250.99,-41.79 249.15,-41.43 247.30,-41.07 245.19,-40.80 243.08,-40.54 239.93,-39.97 236.77,-39.39 233.24,-38.79 229.70,-38.20 225.40,-37.59 221.10,-36.99 218.60,-36.37 216.09,-35.76 213.74,-35.37 211.40,-34.98 210.05,-34.10 208.71,-33.21 207.19,-32.62 205.68,-32.03 204.41,-31.12 203.15,-30.21 201.83,-29.20 200.52,-28.19 199.10,-26.69 197.68,-25.18 196.28,-23.72 194.88,-22.25 194.05,-21.00 193.21,-19.76 192.44,-19.02 191.67,-18.28 190.15,-17.21 188.63,-16.14 187.07,-15.07 185.51,-14.00 184.55,-13.23 183.59,-12.47 181.72,-11.28 179.86,-10.08 178.85,-9.27 177.84,-8.45 175.93,-7.29 174.03,-6.13 172.26,-5.45 170.50,-4.78 169.40,-4.25 168.30,-3.73 166.31,-3.90 164.32,-4.07 164.03,-2.58 163.74,-1.10 162.98,-0.14 162.22,0.81 160.89,1.29 159.55,1.76 157.82,1.22 156.08,0.68 154.58,0.11 153.08,-0.44 151.30,-1.21 149.52,-1.98 148.21,-2.42 146.89,-2.87 145.58,-3.62 144.27,-4.38 142.68,-4.64 141.08,-4.90 139.63,-5.78 138.18,-6.67 137.10,-6.94 136.01,-7.22 134.21,-8.05 132.41,-8.89 131.29,-9.63 130.16,-10.38 128.68,-11.43 127.20,-12.48 125.48,-13.33 123.75,-14.17 122.31,-15.18 120.86,-16.19 119.32,-17.16 117.77,-18.13 116.35,-18.57 114.93,-19.00 113.49,-19.46 112.05,-19.91 110.63,-20.37 109.21,-20.83 107.82,-21.33 106.42,-21.84 104.94,-22.86 103.46,-23.88 102.04,-24.88 100.63,-25.88 99.50,-27.04 98.38,-28.21 96.63,-29.05 94.88,-29.89 93.80,-31.06 92.72,-32.22 91.30,-33.21 89.88,-34.19 88.40,-34.77 86.93,-35.35 85.17,-36.67 83.41,-37.99 82.01,-38.91 80.62,-39.84 79.38,-40.48 78.15,-41.13 75.67,-41.35 73.19,-41.57 71.34,-41.19 69.50,-40.81 68.96,-39.05 68.43,-37.29 67.36,-36.23 66.29,-35.18 65.74,-34.15 65.20,-33.12 63.76,-32.13 62.31,-31.13 60.87,-30.13 59.43,-29.14 58.00,-28.15 56.57,-27.16 55.29,-26.24 54.00,-25.32 52.93,-24.28 51.87,-23.24 51.35,-22.23 50.84,-21.22 49.85,-20.68 48.85,-20.13 48.28,-19.13 47.71,-18.13 46.24,-17.57 44.77,-17.00 43.79,-16.45 42.81,-15.90 42.55,-14.63 42.29,-13.36 40.75,-11.85 39.20,-10.34 38.18,-9.80 37.16,-9.26 36.62,-8.31 36.08,-7.35 34.28,-6.24 32.49,-5.14 31.32,-4.53 30.16,-3.93 29.05,-3.76 27.95,-3.59 26.22,-2.96 24.49,-2.34 23.35,-1.70 22.22,-1.07 21.51,-0.21 20.80,0.64 19.63,1.14 18.46,1.63 16.48,1.67 14.49,1.71 13.41,2.05 12.33,2.38 10.82,2.39 9.32,2.39 7.84,2.39 6.37,2.39 4.83,2.40 3.30,2.41 1.65,2.45 0,2.49 -0.29,2.45 -0.59,2.42 -0.87,2.31 -1.15,2.21 -1.40,2.03 -1.65,1.86 -1.85,1.64 -2.05,1.41 -2.19,1.15 -2.33,0.88 -2.40,0.59 -2.47,0.30 -2.47,-0.00 -2.47,-0.30 -2.40,-0.59 -2.33,-0.88 -2.19,-1.15 -2.05,-1.41 -1.85,-1.64 -1.65,-1.86 -1.40,-2.03 -1.15,-2.21 -0.87,-2.31 -0.59,-2.42 -0.29,-2.45 0.00,-2.49 0.00,-2.49 L 0,-2.49 Z"></path></g></svg>