<svg version="1.1" xmlns="http://www.w3.org/2000/svg" viewBox="0 0 1394 84" width="1394" height="84">
  <!-- svg-source:excalidraw -->
  
  <defs>
    <style class="style-fonts">
      @font-face {
        font-family: "Virgil";
        src: url("https://excalidraw.com/Virgil.woff2");
      }
      @font-face {
        font-family: "Cascadia";
        src: url("https://excalidraw.com/Cascadia.woff2");
      }
      @font-face {
        font-family: "Assistant";
        src: url("https://excalidraw.com/Assistant-Regular.woff2");
      }
    </style>
    
  </defs>
  <rect x="0" y="0" width="1394" height="84" fill="#f0f0f0"></rect><g transform="translate(10 10) rotate(0 687 32)" stroke="none"><path fill="#a5d8ff" d="M 0.60,-5.12 Q 0.60,-5.12 2.45,-4.98 4.29,-4.84 6.93,-4.37 9.57,-3.91 12.02,-2.86 14.47,-1.82 16.73,-0.32 19.00,1.16 21.56,2.25 24.13,3.33 26.49,4.36 28.85,5.40 31.25,6.47 33.64,7.53 35.64,8.39 37.64,9.24 39.72,10.20 41.80,11.16 43.84,12.12 45.88,13.08 48.59,14.33 51.30,15.58 53.33,16.24 55.35,16.89 57.94,18.05 60.52,19.21 64.05,20.58 67.58,21.95 69.73,22.74 71.89,23.52 74.23,24.28 76.57,25.04 78.93,25.92 81.28,26.81 84.28,27.88 87.28,28.95 90.46,30.07 93.65,31.19 96.84,32.31 100.04,33.44 102.39,34.18 104.75,34.93 107.31,35.67 109.86,36.41 112.38,37.10 114.90,37.79 117.08,38.17 119.27,38.55 121.84,39.29 124.41,40.04 127.18,40.44 129.96,40.85 132.81,41.32 135.67,41.79 138.45,42.20 141.22,42.60 144.91,42.96 148.59,43.31 151.48,43.45 154.36,43.58 157.69,43.94 161.01,44.29 163.39,44.32 165.76,44.36 168.53,44.32 171.31,44.28 173.73,44.24 176.15,44.19 178.55,44.15 180.95,44.11 183.73,43.79 186.52,43.46 188.78,43.10 191.05,42.73 193.31,42.35 195.58,41.96 198.07,41.61 200.56,41.25 202.97,40.88 205.38,40.51 207.79,40.14 210.19,39.77 214.52,39.41 218.85,39.06 221.95,38.86 225.04,38.66 228.67,38.51 232.29,38.36 235.53,37.91 238.77,37.46 242.80,37.11 246.83,36.75 249.61,36.54 252.39,36.32 255.85,35.81 259.31,35.29 262.30,34.71 265.28,34.13 268.83,33.25 272.37,32.38 275.94,31.55 279.51,30.72 282.01,30.25 284.52,29.79 286.96,29.41 289.40,29.03 292.22,28.32 295.04,27.60 297.12,26.98 299.19,26.35 301.91,25.38 304.63,24.41 307.46,24.23 310.29,24.05 313.91,23.86 317.53,23.67 320.71,23.55 323.89,23.43 327.54,23.36 331.20,23.29 335.56,23.32 339.92,23.35 344.53,23.29 349.15,23.23 353.40,23.10 357.64,22.96 361.26,22.62 364.87,22.29 369.70,22.07 374.52,21.86 378.84,21.61 383.15,21.36 386.90,21.15 390.64,20.95 394.45,20.68 398.26,20.41 401.80,20.21 405.34,20.02 408.63,19.90 411.92,19.78 414.63,20.18 417.33,20.57 420.27,20.36 423.21,20.16 425.38,20.35 427.56,20.55 431.68,20.84 435.80,21.12 438.43,21.14 441.05,21.17 444.51,21.75 447.96,22.34 451.14,22.97 454.33,23.60 456.91,24.20 459.49,24.80 462.59,25.52 465.69,26.23 468.75,27.06 471.82,27.89 473.82,28.67 475.82,29.44 478.82,30.45 481.82,31.46 484.60,32.64 487.39,33.81 489.84,34.91 492.28,36.01 494.52,37.55 496.76,39.08 499.92,39.93 503.08,40.79 506.77,42.24 510.45,43.69 512.41,44.52 514.37,45.35 518.25,46.59 522.13,47.83 524.91,48.62 527.70,49.41 530.13,49.95 532.57,50.50 534.97,50.96 537.38,51.43 541.09,51.86 544.81,52.30 547.83,52.66 550.86,53.02 553.40,53.34 555.95,53.67 558.61,53.96 561.28,54.25 565.17,54.73 569.05,55.21 571.94,55.61 574.83,56.00 577.67,56.23 580.50,56.46 583.56,56.64 586.61,56.81 589.51,57.09 592.41,57.38 595.69,57.63 598.97,57.88 602.69,58.12 606.40,58.36 609.97,58.69 613.53,59.01 617.19,59.24 620.85,59.48 624.70,59.65 628.56,59.83 632.04,59.87 635.52,59.90 639.30,59.98 643.07,60.07 646.51,60.06 649.95,60.05 652.34,59.91 654.72,59.77 657.27,59.51 659.83,59.26 662.91,58.64 666.00,58.02 669.37,56.22 672.75,54.41 675.69,52.61 678.64,50.81 681.46,49.74 684.28,48.66 688.28,46.61 692.28,44.56 695.31,43.44 698.34,42.32 700.84,41.28 703.34,40.24 705.97,39.29 708.60,38.33 711.54,37.37 714.47,36.40 717.14,35.53 719.80,34.65 722.52,33.99 725.23,33.33 727.56,32.66 729.89,32.00 732.16,31.58 734.43,31.16 737.30,30.53 740.18,29.89 743.36,29.39 746.53,28.89 749.49,28.55 752.44,28.21 755.58,27.80 758.73,27.38 761.45,26.83 764.18,26.27 766.90,25.68 769.62,25.09 771.78,24.73 773.94,24.37 776.78,24.08 779.62,23.79 782.66,23.54 785.70,23.29 788.83,23.05 791.96,22.80 795.65,22.63 799.34,22.46 802.70,22.20 806.07,21.95 809.34,21.64 812.62,21.34 816.96,21.43 821.29,21.51 824.81,21.30 828.33,21.09 831.79,20.97 835.24,20.84 837.92,20.51 840.60,20.17 843.28,19.96 845.95,19.74 849.17,19.15 852.38,18.55 856.00,18.52 859.61,18.49 861.77,18.70 863.93,18.92 866.92,19.45 869.90,19.99 874.09,20.49 878.27,20.99 881.94,21.71 885.60,22.43 888.85,22.98 892.09,23.53 895.71,24.11 899.33,24.70 902.16,24.86 904.99,25.02 908.33,25.59 911.66,26.15 914.75,26.61 917.83,27.06 920.98,27.49 924.13,27.91 927.45,28.57 930.78,29.23 934.28,29.79 937.79,30.35 940.91,30.98 944.02,31.61 946.23,31.99 948.43,32.37 951.06,32.72 953.68,33.06 955.78,33.72 957.87,34.39 960.34,34.97 962.82,35.56 965.28,36.18 967.75,36.80 970.06,37.31 972.36,37.83 975.26,38.59 978.16,39.35 980.80,40.08 983.44,40.81 985.72,41.05 988.00,41.28 991.88,42.03 995.77,42.78 998.82,43.53 1001.87,44.29 1006.42,45.13 1010.96,45.97 1015.85,46.95 1020.74,47.93 1025.46,48.67 1030.18,49.41 1034.86,49.80 1039.53,50.20 1043.82,50.43 1048.12,50.66 1051.78,50.67 1055.44,50.69 1058.84,50.63 1062.23,50.58 1064.59,50.41 1066.95,50.25 1070.15,49.96 1073.35,49.67 1076.54,48.63 1079.72,47.60 1082.35,46.79 1084.98,45.98 1088.29,45.36 1091.59,44.74 1093.84,44.38 1096.09,44.02 1098.72,43.46 1101.35,42.89 1104.78,42.32 1108.22,41.75 1110.72,41.57 1113.22,41.40 1115.86,41.23 1118.50,41.06 1122.00,40.93 1125.49,40.81 1128.47,40.72 1131.46,40.63 1134.40,40.44 1137.34,40.25 1140.44,40.01 1143.54,39.76 1146.19,39.41 1148.83,39.06 1152.49,38.23 1156.14,37.39 1158.64,36.53 1161.13,35.68 1165.40,34.88 1169.67,34.09 1172.40,34.08 1175.14,34.07 1178.40,34.03 1181.66,33.98 1186.46,34.24 1191.26,34.50 1196.40,34.52 1201.54,34.55 1206.96,34.44 1212.37,34.32 1217.89,34.13 1223.42,33.93 1227.97,33.47 1232.52,33.01 1235.84,32.46 1239.15,31.90 1241.78,31.15 1244.41,30.41 1246.48,29.76 1248.54,29.11 1251.61,27.86 1254.69,26.60 1259.01,25.63 1263.34,24.66 1266.04,24.35 1268.74,24.04 1271.43,23.87 1274.12,23.70 1277.92,23.64 1281.72,23.58 1286.59,23.51 1291.46,23.45 1296.82,23.51 1302.19,23.57 1307.14,23.44 1312.10,23.32 1317.43,23.10 1322.76,22.87 1327.78,22.60 1332.80,22.32 1336.74,21.95 1340.68,21.58 1343.80,21.26 1346.92,20.94 1349.99,20.54 1353.05,20.15 1355.69,19.68 1358.32,19.21 1360.49,18.89 1362.65,18.58 1365.77,18.23 1368.89,17.87 1373.66,20.21 1378.44,22.55 1378.65,23.33 1378.86,24.11 1378.81,24.92 1378.77,25.72 1378.46,26.47 1378.16,27.22 1377.63,27.83 1377.11,28.45 1376.41,28.86 1375.72,29.27 1374.93,29.44 1374.14,29.61 1373.34,29.52 1372.53,29.43 1371.80,29.08 1371.07,28.74 1370.49,28.18 1369.90,27.62 1369.53,26.91 1369.16,26.19 1369.03,25.39 1368.90,24.60 1369.04,23.80 1369.17,23.00 1369.56,22.29 1369.94,21.58 1370.53,21.03 1371.12,20.48 1371.85,20.14 1372.59,19.81 1373.39,19.72 1374.19,19.64 1374.98,19.82 1375.77,20.00 1376.46,20.42 1377.15,20.84 1377.67,21.46 1378.19,22.07 1378.48,22.83 1378.78,23.58 1378.82,24.38 1378.86,25.19 1378.64,25.97 1378.42,26.75 1377.96,27.41 1377.50,28.08 1376.86,28.56 1376.21,29.05 1375.44,29.30 1374.68,29.56 1373.87,29.55 1373.06,29.55 1372.30,29.28 1371.53,29.02 1370.89,28.53 1370.25,28.04 1369.80,27.37 1369.35,26.69 1369.35,26.70 1369.35,26.70 1370.16,27.12 1370.97,27.54 1368.83,27.36 1366.69,27.18 1362.99,27.07 1359.28,26.96 1356.49,27.16 1353.70,27.36 1350.48,27.53 1347.27,27.71 1344.26,27.70 1341.24,27.69 1337.24,28.06 1333.23,28.42 1328.20,28.86 1323.17,29.30 1317.82,29.75 1312.48,30.20 1307.43,30.62 1302.39,31.05 1297.21,31.39 1292.02,31.73 1287.20,32.33 1282.38,32.93 1278.51,33.41 1274.63,33.90 1272.24,33.98 1269.85,34.07 1267.07,34.36 1264.29,34.66 1260.87,35.05 1257.46,35.43 1253.91,36.25 1250.37,37.06 1248.21,37.38 1246.05,37.70 1243.08,38.22 1240.10,38.74 1236.72,39.11 1233.33,39.48 1228.60,40.19 1223.87,40.90 1218.35,41.41 1212.83,41.93 1207.40,42.47 1201.97,43.01 1196.72,43.55 1191.47,44.10 1186.95,44.56 1182.43,45.02 1178.90,45.45 1175.37,45.88 1172.93,45.98 1170.49,46.07 1168.04,46.37 1165.59,46.66 1163.46,46.98 1161.33,47.30 1157.96,47.99 1154.58,48.68 1152.39,49.00 1150.19,49.33 1147.42,49.70 1144.64,50.07 1141.48,50.49 1138.31,50.91 1135.16,51.28 1132.00,51.64 1129.29,51.83 1126.57,52.03 1123.15,52.57 1119.72,53.12 1116.88,53.50 1114.05,53.88 1110.40,54.33 1106.76,54.79 1103.89,55.07 1101.02,55.35 1097.85,55.95 1094.68,56.56 1092.51,56.59 1090.34,56.62 1087.05,57.07 1083.77,57.52 1081.05,57.83 1078.33,58.15 1075.83,58.45 1073.34,58.74 1070.13,58.44 1066.93,58.15 1064.56,57.97 1062.20,57.79 1058.79,57.70 1055.37,57.62 1051.68,57.56 1047.98,57.49 1043.60,57.55 1039.21,57.61 1034.29,57.59 1029.36,57.57 1024.45,57.34 1019.55,57.11 1014.75,56.83 1009.96,56.55 1004.70,56.46 999.43,56.38 996.69,55.96 993.94,55.54 991.22,55.23 988.49,54.92 985.87,54.37 983.26,53.81 980.88,53.31 978.50,52.82 975.46,51.77 972.42,50.73 969.32,49.90 966.23,49.07 963.70,48.03 961.16,47.00 958.76,46.06 956.35,45.12 953.60,43.97 950.84,42.83 948.61,42.15 946.39,41.47 944.27,40.88 942.15,40.29 939.40,39.65 936.66,39.02 932.87,38.63 929.07,38.25 926.02,37.70 922.97,37.15 919.76,36.78 916.56,36.41 913.34,36.00 910.12,35.59 907.28,35.15 904.43,34.70 901.36,34.53 898.29,34.35 894.52,34.14 890.74,33.92 887.39,33.62 884.03,33.32 880.82,33.04 877.61,32.77 874.56,32.64 871.52,32.52 867.99,31.76 864.46,31.01 861.89,30.26 859.31,29.51 857.20,29.03 855.09,28.55 852.94,28.49 850.80,28.44 848.58,28.60 846.36,28.77 843.89,28.79 841.42,28.80 838.48,29.00 835.54,29.20 832.27,29.32 828.99,29.44 825.31,29.79 821.63,30.15 817.67,30.55 813.72,30.96 810.45,31.41 807.18,31.86 803.80,32.36 800.42,32.85 796.87,33.44 793.32,34.02 790.24,34.52 787.16,35.02 784.22,35.52 781.29,36.02 778.72,36.47 776.14,36.92 772.56,37.61 768.98,38.30 766.35,38.60 763.72,38.90 760.32,39.53 756.92,40.16 753.64,40.44 750.35,40.72 747.60,40.75 744.86,40.79 742.05,41.05 739.23,41.31 736.00,41.80 732.77,42.30 730.23,42.99 727.69,43.69 725.43,44.21 723.18,44.72 720.63,45.59 718.09,46.47 715.26,47.57 712.42,48.68 710.12,49.55 707.82,50.42 705.20,51.63 702.58,52.84 700.05,53.96 697.52,55.08 695.41,56.16 693.30,57.25 691.02,58.48 688.74,59.71 685.23,61.32 681.72,62.94 679.03,64.42 676.34,65.90 673.48,67.08 670.61,68.25 668.48,68.45 666.34,68.65 663.09,68.69 659.83,68.73 657.27,68.47 654.71,68.22 652.33,68.07 649.95,67.93 646.50,67.92 643.05,67.90 639.27,67.97 635.48,68.03 631.98,68.03 628.47,68.03 624.54,68.13 620.61,68.22 616.76,68.25 612.90,68.28 609.59,68.14 606.29,68.00 602.48,68.15 598.67,68.31 595.06,68.36 591.45,68.40 588.94,68.21 586.43,68.02 583.24,68.10 580.05,68.17 576.84,68.17 573.63,68.16 570.95,68.00 568.26,67.84 565.71,67.71 563.16,67.57 559.90,67.01 556.63,66.45 554.20,66.01 551.78,65.57 549.22,65.11 546.66,64.66 543.20,64.18 539.74,63.70 537.54,63.48 535.33,63.25 532.80,62.86 530.26,62.47 527.55,62.02 524.84,61.57 522.01,61.04 519.17,60.52 516.54,59.95 513.90,59.39 509.95,58.01 506.01,56.63 502.48,55.41 498.95,54.19 495.96,53.15 492.97,52.11 489.64,50.41 486.31,48.70 483.95,47.54 481.58,46.38 479.31,45.31 477.05,44.24 474.65,43.42 472.26,42.60 469.86,41.43 467.45,40.25 465.07,39.58 462.69,38.91 459.55,38.15 456.42,37.38 453.10,36.40 449.78,35.41 446.76,34.57 443.74,33.74 440.90,33.21 438.06,32.68 434.55,32.21 431.05,31.74 428.64,31.59 426.24,31.45 423.01,31.02 419.77,30.60 417.55,30.03 415.32,29.45 412.68,28.64 410.03,27.82 407.81,27.41 405.58,27.01 402.16,27.06 398.75,27.11 394.84,27.40 390.93,27.70 387.33,27.82 383.73,27.93 379.40,28.43 375.08,28.93 370.38,29.47 365.67,30.02 362.01,30.43 358.34,30.84 354.10,31.45 349.86,32.07 345.32,32.75 340.77,33.43 336.54,34.19 332.32,34.95 328.73,35.57 325.15,36.20 322.11,36.70 319.07,37.20 314.75,37.45 310.44,37.70 307.76,37.54 305.07,37.37 301.89,38.58 298.71,39.78 295.16,40.62 291.60,41.45 287.30,42.37 283.01,43.29 278.89,44.37 274.77,45.44 271.99,46.03 269.21,46.62 265.98,47.24 262.76,47.86 260.58,48.02 258.40,48.17 256.16,48.58 253.93,48.98 251.22,49.43 248.51,49.88 246.20,50.22 243.89,50.56 240.28,51.05 236.67,51.54 233.18,51.87 229.68,52.20 226.28,52.58 222.87,52.95 219.75,53.12 216.62,53.28 213.42,53.66 210.22,54.04 207.81,54.43 205.39,54.81 202.89,55.20 200.39,55.59 196.52,56.28 192.64,56.97 190.12,57.31 187.60,57.66 184.27,57.97 180.95,58.28 178.55,58.24 176.15,58.20 173.72,58.15 171.28,58.11 168.44,58.04 165.59,57.98 162.88,57.89 160.17,57.81 157.08,57.49 153.99,57.18 150.35,57.02 146.71,56.87 143.25,56.65 139.79,56.43 137.11,56.04 134.42,55.66 130.94,55.17 127.45,54.69 124.13,54.23 120.81,53.76 118.60,53.12 116.39,52.48 113.86,52.02 111.32,51.56 108.04,50.74 104.75,49.93 101.55,48.80 98.34,47.68 95.95,46.92 93.56,46.16 90.36,45.03 87.17,43.89 83.98,42.75 80.78,41.61 77.56,40.39 74.33,39.18 71.90,38.40 69.46,37.63 66.88,36.76 64.29,35.88 62.11,34.97 59.93,34.05 57.29,33.07 54.65,32.10 52.49,31.13 50.32,30.16 47.80,29.29 45.28,28.42 42.57,27.12 39.87,25.82 37.01,24.45 34.16,23.08 32.40,21.86 30.64,20.64 27.66,19.50 24.68,18.36 22.31,17.17 19.94,15.97 17.48,14.64 15.01,13.32 13.28,11.92 11.56,10.53 9.61,8.74 7.66,6.96 5.35,6.33 3.05,5.71 1.22,5.41 -0.60,5.12 -1.20,4.97 -1.81,4.83 -2.36,4.54 -2.91,4.25 -3.38,3.84 -3.84,3.43 -4.20,2.92 -4.55,2.41 -4.78,1.83 -5.00,1.25 -5.08,0.63 -5.15,0.01 -5.08,-0.59 -5.01,-1.21 -4.79,-1.79 -4.57,-2.38 -4.22,-2.89 -3.87,-3.40 -3.40,-3.82 -2.94,-4.23 -2.39,-4.52 -1.84,-4.81 -1.24,-4.96 -0.63,-5.11 -0.01,-5.12 0.60,-5.12 0.60,-5.12 L 0.60,-5.12 Z"></path></g></svg>